<?xml version="1.0" encoding="utf-8"?>

<!-- Uploaded to: SVG Repo, www.svgrepo.com, Generator: SVG Repo Mixer Tools -->
<svg version="1.1" id="Icons" xmlns="http://www.w3.org/2000/svg" xmlns:xlink="http://www.w3.org/1999/xlink" 
	 viewBox="0 0 32 32" xml:space="preserve">
<style type="text/css">
	.st0{fill:none;stroke:#000000;stroke-width:2;stroke-linecap:round;stroke-linejoin:round;stroke-miterlimit:10;}
</style>
<g>
	<path d="M16,23c1.7,0,3-1.3,3-3V5c0-0.6-0.4-1-1-1h-4c-0.6,0-1,0.4-1,1v15C13,21.7,14.3,23,16,23z M17,6v4h-2V6H17z"/>
	<path d="M29,8h-3V5c0-0.6-0.4-1-1-1h-4c-0.6,0-1,0.4-1,1v15c0,1.7,1.3,3,3,3s3-1.3,3-3V10h2v17H4V10h2v10c0,1.7,1.3,3,3,3
		s3-1.3,3-3V5c0-0.6-0.4-1-1-1H7C6.4,4,6,4.4,6,5v3H3C2.4,8,2,8.4,2,9v19c0,0.6,0.4,1,1,1h26c0.6,0,1-0.4,1-1V9C30,8.4,29.6,8,29,8z
		 M24,6v6h-2V6H24z M8,6h2v6H8V6z"/>
</g>
</svg>